#N canvas 228 152 950 447 12;
#X declare -path ekext;
#X text 264 278 source start end destination;
#X obj 502 33 declare -path ekext;
#X obj 143 301 copyarray;
#X msg 143 278 copy \$1 \$2 \$3 \$4;
#N canvas 0 22 450 278 (subpatch) 0;
#X array arraySource 100 float 2;
#X coords 0 1 100 -1 200 140 1 0 0;
#X restore 412 76 graph;
#N canvas 0 22 450 278 (subpatch) 0;
#X array arrayDestination 100 float 2;
#X coords 0 1 100 -1 200 140 1 0 0;
#X restore 622 76 graph;
#X obj 143 255 pack s f f s;
#X obj 173 56 soundfiler;
#X msg 173 33 read -resize sound/HeadDown.wav arraySource;
#X obj 173 10 loadbang;
#X obj 271 228 loadbang;
#X text 268 157 <---click to copy!;
#X msg 173 79 \; arraySource resize \$1 \; arrayDestination resize
\$1;
#X obj 197 207 nbx 6 14 0 622443 0 0 empty empty empty 0 -8 0 12 -262144
-1 -1 622443 256;
#X obj 170 185 nbx 6 14 0 622443 0 0 empty empty empty 0 -8 0 12 -262144
-1 -1 0 256;
#X obj 51 119 - 1;
#X msg 51 183 range 0 \$1;
#X text 274 203 <---end copy;
#X text 246 181 <---start from;
#X msg 652 288 \; arraySource resize 100 \; arrayDestination resize
100;
#X text 649 267 reset array sizes;
#X obj 51 143 t f f;
#X msg 144 338 bang;
#X obj 144 362 tabplay~ arraySource;
#X msg 329 338 bang;
#X obj 329 362 tabplay~ arrayDestination;
#X obj 144 386 dac~;
#X obj 304 386 dac~;
#X obj 521 1711 pack f f s s;
#X text 609 1708 end start destination source;
#X text 655 1734 source start end destination;
#X msg 521 1733 copy \$4 \$2 \$1 \$3;
#X obj 521 1755 ekext/copyarray;
#N canvas 0 23 439 204 credits 0;
#X text 49 69 from the maxlib library;
#X text 50 116 don't try to copy longer than the source array \,;
#X text 50 139 or Pd will likely crash!;
#X text 50 93 with quick (and dirty) improvements.;
#X text 49 45 based on arraycopy by Olaf Mathes;
#X restore 652 243 pd credits and directions;
#X msg 143 158 symbol arraySource;
#X msg 271 251 symbol arrayDestination;
#X connect 3 0 2 0;
#X connect 6 0 3 0;
#X connect 7 0 12 0;
#X connect 7 0 15 0;
#X connect 8 0 7 0;
#X connect 9 0 8 0;
#X connect 10 0 35 0;
#X connect 13 0 6 2;
#X connect 14 0 6 1;
#X connect 15 0 21 0;
#X connect 16 0 14 0;
#X connect 16 0 13 0;
#X connect 21 0 13 0;
#X connect 21 1 16 0;
#X connect 22 0 23 0;
#X connect 23 0 26 0;
#X connect 24 0 25 0;
#X connect 25 0 27 1;
#X connect 28 0 31 0;
#X connect 31 0 32 0;
#X connect 34 0 6 0;
#X connect 35 0 6 3;
