#N canvas 220 179 1077 497 10;
#X obj 154 161 markovChains 16;
#N canvas 3 89 450 300 seed 0;
#X obj 68 133 random 65536;
#X obj 158 133 random 65536;
#X obj 248 133 random 65536;
#X floatatom 248 155 5 0 0 0 - - -;
#X floatatom 158 155 5 0 0 0 - - -;
#X floatatom 68 155 5 0 0 0 - - -;
#X obj 68 176 pack f f f;
#X obj 68 198 outlet;
#X obj 168 45 loadbang;
#X obj 168 67 t b b;
#X obj 238 46 inlet;
#X connect 0 0 5 0;
#X connect 1 0 4 0;
#X connect 2 0 3 0;
#X connect 3 0 6 2;
#X connect 4 0 6 1;
#X connect 5 0 6 0;
#X connect 6 0 7 0;
#X connect 8 0 9 0;
#X connect 9 0 0 0;
#X connect 9 1 2 0;
#X connect 9 1 1 0;
#X connect 10 0 9 0;
#X restore 197 43 pd seed;
#X obj 285 60 print seeding;
#X msg 197 65 seed \$1 \$2 \$3;
#X obj 197 21 bng 15 250 50 0 empty empty empty 17 7 0 10 -262144 -1
-1;
#N canvas 438 89 450 641 init_sequences 0;
#X obj 74 356 t b f;
#X obj 74 389 cup;
#X obj 74 411 >= 15;
#X obj 74 433 sel 1;
#X obj 74 455 t b b;
#X msg 127 442 0;
#X obj 74 477 f;
#X obj 74 499 pack f f f f f f f f f f f f f f f f;
#X obj 116 395 pack;
#X obj 116 417 route 14 13 12 11 10 9 8 7 6 5 4 3 2 1 0;
#X obj 74 314 random 100;
#X obj 74 335 * 0.01;
#X obj 73 293 until;
#X msg 73 272 16;
#X obj 74 521 list prepend addSeq;
#X obj 74 543 list trim;
#X obj 74 565 outlet;
#X msg 119 274 0;
#X obj 73 229 cup;
#X msg 100 184 1;
#X obj 157 123 >= 16;
#X obj 157 145 sel 1;
#X msg 158 188 0;
#X obj 157 167 del 0;
#X obj 73 122 t b b;
#X obj 35 62 bng 15 250 50 0 empty empty empty 17 7 0 10 -262144 -1
-1;
#X obj 159 567 spigot;
#X obj 159 589 print markovChains;
#X obj 192 548 tgl 15 0 empty empty empty 17 7 0 10 -262144 -1 -1 1
1;
#X obj 101 89 t b b;
#X msg 247 114 1;
#X obj 73 144 metro 80;
#X msg 168 306 clear;
#X obj 119 17 inlet;
#X obj 73 250 t b b f;
#X obj 314 100 outlet;
#X obj 38 37 loadbang;
#X obj 119 38 t b b;
#X obj 101 67 del 200;
#X connect 0 0 1 0;
#X connect 0 1 6 1;
#X connect 0 1 8 1;
#X connect 1 0 2 0;
#X connect 1 0 8 0;
#X connect 2 0 3 0;
#X connect 3 0 4 0;
#X connect 4 0 6 0;
#X connect 4 1 5 0;
#X connect 5 0 1 0;
#X connect 6 0 7 0;
#X connect 7 0 14 0;
#X connect 8 0 9 0;
#X connect 9 0 7 1;
#X connect 9 1 7 2;
#X connect 9 2 7 3;
#X connect 9 3 7 4;
#X connect 9 4 7 5;
#X connect 9 5 7 6;
#X connect 9 6 7 7;
#X connect 9 7 7 8;
#X connect 9 8 7 9;
#X connect 9 9 7 10;
#X connect 9 10 7 11;
#X connect 9 11 7 12;
#X connect 9 12 7 13;
#X connect 9 13 7 14;
#X connect 9 14 7 15;
#X connect 10 0 11 0;
#X connect 11 0 0 0;
#X connect 12 0 10 0;
#X connect 13 0 12 0;
#X connect 14 0 15 0;
#X connect 15 0 16 0;
#X connect 15 0 26 0;
#X connect 17 0 1 0;
#X connect 18 0 20 0;
#X connect 18 0 34 0;
#X connect 19 0 18 0;
#X connect 20 0 21 0;
#X connect 21 0 23 0;
#X connect 22 0 31 0;
#X connect 23 0 22 0;
#X connect 23 0 19 0;
#X connect 24 0 31 0;
#X connect 24 1 19 0;
#X connect 25 0 29 0;
#X connect 26 0 27 0;
#X connect 28 0 26 1;
#X connect 29 0 24 0;
#X connect 29 1 30 0;
#X connect 29 1 32 0;
#X connect 30 0 28 0;
#X connect 31 0 18 0;
#X connect 32 0 16 0;
#X connect 33 0 37 0;
#X connect 34 0 13 0;
#X connect 34 1 17 0;
#X connect 36 0 38 0;
#X connect 37 0 38 0;
#X connect 37 1 35 0;
#X connect 38 0 29 0;
#X restore 48 25 pd init_sequences;
#X obj 551 280 spigot;
#X obj 551 302 print markovChains-listOut;
#X obj 584 261 tgl 15 0 empty empty empty 17 7 0 10 -262144 -1 -1 0
1;
#N canvas 3 89 450 630 unpack-multiply-and-distribute 0;
#X obj 76 48 inlet;
#X obj 76 70 unpack f f f f f f f f f f f f f f f f;
#X obj 76 510 * 100;
#X obj 91 460 * 100;
#X obj 76 532 outlet;
#X obj 91 482 outlet;
#X obj 106 410 * 100;
#X obj 121 360 * 100;
#X obj 106 432 outlet;
#X obj 121 382 outlet;
#X obj 136 310 * 100;
#X obj 136 332 outlet;
#X obj 151 260 * 100;
#X obj 166 210 * 100;
#X obj 151 282 outlet;
#X obj 166 232 outlet;
#X obj 181 160 * 100;
#X obj 181 182 outlet;
#X obj 301 160 * 100;
#X obj 196 510 * 100;
#X obj 301 182 outlet;
#X obj 196 532 outlet;
#X obj 211 460 * 100;
#X obj 226 410 * 100;
#X obj 211 482 outlet;
#X obj 226 432 outlet;
#X obj 241 360 * 100;
#X obj 241 382 outlet;
#X obj 256 310 * 100;
#X obj 271 260 * 100;
#X obj 256 332 outlet;
#X obj 271 282 outlet;
#X obj 286 210 * 100;
#X obj 286 232 outlet;
#X connect 0 0 1 0;
#X connect 1 0 2 0;
#X connect 1 1 3 0;
#X connect 1 2 6 0;
#X connect 1 3 7 0;
#X connect 1 4 10 0;
#X connect 1 5 12 0;
#X connect 1 6 13 0;
#X connect 1 7 16 0;
#X connect 1 8 19 0;
#X connect 1 9 22 0;
#X connect 1 10 23 0;
#X connect 1 11 26 0;
#X connect 1 12 28 0;
#X connect 1 13 29 0;
#X connect 1 14 32 0;
#X connect 1 15 18 0;
#X connect 2 0 4 0;
#X connect 3 0 5 0;
#X connect 6 0 8 0;
#X connect 7 0 9 0;
#X connect 10 0 11 0;
#X connect 12 0 14 0;
#X connect 13 0 15 0;
#X connect 16 0 17 0;
#X connect 18 0 20 0;
#X connect 19 0 21 0;
#X connect 22 0 24 0;
#X connect 23 0 25 0;
#X connect 26 0 27 0;
#X connect 28 0 30 0;
#X connect 29 0 31 0;
#X connect 32 0 33 0;
#X restore 283 280 pd unpack-multiply-and-distribute;
#X obj 283 304 vsl 12 156 0 155 0 0 empty empty 0 4 9 1 10 -262144
-1 -1 1000 1;
#X obj 298 304 vsl 12 156 0 155 0 0 empty empty 1 4 9 1 10 -262144
-1 -1 8200 1;
#X obj 313 304 vsl 12 156 0 155 0 0 empty empty 2 4 9 1 10 -262144
-1 -1 7800 1;
#X obj 328 304 vsl 12 156 0 155 0 0 empty empty 3 4 9 1 10 -262144
-1 -1 4300 1;
#X obj 343 304 vsl 12 156 0 155 0 0 empty empty 4 4 9 1 10 -262144
-1 -1 8500 1;
#X obj 358 304 vsl 12 156 0 155 0 0 empty empty 5 4 9 1 10 -262144
-1 -1 9900 1;
#X obj 373 304 vsl 12 156 0 155 0 0 empty empty 6 4 9 1 10 -262144
-1 -1 4400 1;
#X obj 388 304 vsl 12 156 0 155 0 0 empty empty 7 4 9 1 10 -262144
-1 -1 1800 1;
#X obj 413 304 vsl 12 156 0 155 0 0 empty empty 8 4 9 1 10 -262144
-1 -1 9900 1;
#X obj 428 304 vsl 12 156 0 155 0 0 empty empty 9 4 9 1 10 -262144
-1 -1 600 1;
#X obj 443 304 vsl 12 156 0 155 0 0 empty empty 10 0 9 1 10 -262144
-1 -1 6800 1;
#X obj 458 304 vsl 12 156 0 155 0 0 empty empty 11 0 9 1 10 -262144
-1 -1 5600 1;
#X obj 473 304 vsl 12 156 0 155 0 0 empty empty 12 0 9 1 10 -262144
-1 -1 9900 1;
#X obj 488 304 vsl 12 156 0 155 0 0 empty empty 13 0 9 1 10 -262144
-1 -1 2700 1;
#X obj 503 304 vsl 12 156 0 155 0 0 empty empty 14 0 9 1 10 -262144
-1 -1 8900 1;
#X obj 518 304 vsl 12 156 0 155 0 0 empty empty 15 0 9 1 10 -262144
-1 -1 1100 1;
#X msg 366 144 outList 0;
#X msg 296 134 outList -1;
#X floatatom 137 88 5 0 16 2 slot #0-setSlot -;
#X msg 137 109 setSlot \$1;
#X floatatom 51 212 5 0 0 0 index - -;
#X floatatom 84 331 0 0 0 0 value - -;
#X floatatom 140 363 5 0 0 0 slot - -;
#X floatatom 200 335 0 0 0 0 random - -;
#X floatatom 787 395 5 0 0 0 thisSlot - -;
#X floatatom 805 374 5 0 0 0 thisLen - -;
#X floatatom 823 353 5 0 0 0 thisOffset - -;
#X floatatom 842 332 5 0 0 0 thisIndex - -;
#X floatatom 860 312 5 0 0 0 mapStart - -;
#X floatatom 879 291 5 0 0 0 mapLength - -;
#X floatatom 897 270 0 0 0 0 value(probability) - -;
#X text 791 186 debug list;
#N canvas 3 89 450 300 debug 0;
#X msg 118 117 debug 1;
#X msg 98 97 debug 0;
#X obj 98 203 outlet;
#X msg 139 137 debug 2;
#X msg 159 157 debug 3;
#X obj 159 40 r \$0-debug3;
#X obj 159 62 del 100;
#X connect 0 0 2 0;
#X connect 1 0 2 0;
#X connect 3 0 2 0;
#X connect 4 0 2 0;
#X connect 5 0 6 0;
#X connect 6 0 4 0;
#X restore 522 144 pd debug;
#X msg 62 124 bang;
#X msg 449 90 autoNorm \$1;
#X obj 449 70 tgl 15 0 empty empty empty 17 7 0 10 -262144 -1 -1 1
1;
#X obj 48 6 bng 15 250 50 0 empty empty empty 17 7 0 10 -262144 -1
-1;
#X obj 58 163 bng 15 250 50 0 empty empty empty 17 7 0 10 -262144 -1
-1;
#X obj 787 206 unpack f f f f f f f f;
#X floatatom 916 250 0 0 0 0 normalize - -;
#X obj 84 46 s \$0-debug3;
#X obj 449 26 loadbang;
#X msg 449 48 1;
#X obj 226 113 f;
#X msg 226 135 outList \$1;
#X obj 226 93 bng 15 250 50 0 empty empty empty 17 7 0 10 -262144 -1
-1;
#N canvas 3 89 450 300 change 0;
#X obj 37 37 inlet;
#X obj 37 149 spigot;
#X obj 37 171 change;
#X obj 77 127 inlet;
#X obj 277 149 spigot;
#X obj 276 172 change;
#X obj 317 127 inlet;
#X obj 37 193 s \$0-setSlot;
#X obj 276 194 s \$0-outList;
#X obj 37 59 t f f;
#X obj 37 81 pipe 100;
#X connect 0 0 9 0;
#X connect 1 0 2 0;
#X connect 2 0 7 0;
#X connect 3 0 1 1;
#X connect 4 0 5 0;
#X connect 5 0 8 0;
#X connect 6 0 4 1;
#X connect 9 0 10 0;
#X connect 9 1 1 0;
#X connect 9 1 4 0;
#X connect 10 0 1 0;
#X connect 10 0 4 0;
#X restore 51 233 pd change;
#X obj 87 212 tgl 15 0 empty \$0-setSlotTgl setSlot 17 7 1 10 -262144
-1 -1 1 1;
#X obj 115 233 tgl 15 0 empty \$0-outListTgl outList 17 7 1 10 -262144
-1 -1 1 1;
#X obj 259 107 r \$0-outList;
#X connect 0 0 30 0;
#X connect 0 1 31 0;
#X connect 0 2 32 0;
#X connect 0 3 33 0;
#X connect 0 4 6 0;
#X connect 0 4 9 0;
#X connect 0 5 48 0;
#X connect 1 0 2 0;
#X connect 1 0 3 0;
#X connect 3 0 0 0;
#X connect 4 0 1 0;
#X connect 5 0 0 0;
#X connect 5 1 50 0;
#X connect 6 0 7 0;
#X connect 8 0 6 1;
#X connect 9 0 10 0;
#X connect 9 1 11 0;
#X connect 9 2 12 0;
#X connect 9 3 13 0;
#X connect 9 4 14 0;
#X connect 9 5 15 0;
#X connect 9 6 16 0;
#X connect 9 7 17 0;
#X connect 9 8 18 0;
#X connect 9 9 19 0;
#X connect 9 10 20 0;
#X connect 9 11 21 0;
#X connect 9 12 22 0;
#X connect 9 13 23 0;
#X connect 9 14 24 0;
#X connect 9 15 25 0;
#X connect 26 0 0 0;
#X connect 27 0 0 0;
#X connect 28 0 29 0;
#X connect 28 0 53 1;
#X connect 29 0 0 0;
#X connect 30 0 56 0;
#X connect 42 0 0 0;
#X connect 43 0 0 0;
#X connect 44 0 0 0;
#X connect 45 0 44 0;
#X connect 46 0 5 0;
#X connect 47 0 0 0;
#X connect 48 0 34 0;
#X connect 48 1 35 0;
#X connect 48 2 36 0;
#X connect 48 3 37 0;
#X connect 48 4 38 0;
#X connect 48 5 39 0;
#X connect 48 6 40 0;
#X connect 48 7 49 0;
#X connect 51 0 52 0;
#X connect 52 0 45 0;
#X connect 53 0 54 0;
#X connect 54 0 0 0;
#X connect 55 0 53 0;
#X connect 57 0 56 1;
#X connect 58 0 56 2;
#X connect 59 0 54 0;
