#N canvas 3 89 450 300 10;
#X declare -path ekext;
#X obj 74 148 ptwo;
#X msg 51 108 2;
#X msg 87 108 4;
#X msg 122 109 4096;
#X msg 167 109 4095;
#X obj 74 195 tgl 15 0 empty empty empty 17 7 0 10 -262144 -1 -1 0
1;
#X floatatom 74 172 5 0 0 0 - - -;
#X text 125 145 ....is it a power-of-two??;
#X text 173 218 ekext 2019;
#X msg 207 109 212;
#X msg 241 109 131072;
#X text 55 87 2;
#X text 88 89 2^2;
#X text 124 89 2^12;
#X text 247 89 2^17;
#X obj 178 187 declare -path ekext;
#X connect 0 0 6 0;
#X connect 1 0 0 0;
#X connect 2 0 0 0;
#X connect 3 0 0 0;
#X connect 4 0 0 0;
#X connect 6 0 5 0;
#X connect 9 0 0 0;
#X connect 10 0 0 0;
