#N canvas 7 61 582 524 10;
#X obj 86 318 scalefilter;
#X floatatom 85 285 5 0 0 0 - - -;
#X floatatom 157 285 5 0 0 0 - - -;
#X obj 79 211 tgl 15 0 empty empty empty 17 7 0 10 -262144 -1 -1 0
1;
#X obj 79 233 metro 500;
#X obj 79 255 random 12;
#X floatatom 89 350 5 0 0 0 - - -;
#X msg 186 243 zero 6;
#X obj 186 351 bng 15 250 50 0 empty empty empty 17 7 0 10 -262144
-1 -1;
#X floatatom 154 374 5 0 0 0 - - -;
#X obj 125 395 print scale;
#X msg 210 272 set 0 1 3 4 5 7 9 10;
#X msg 176 219 reset;
#X msg 170 196 get;
#X msg 244 224 zero 12;
#X text 59 48 Scalefilter;
#X connect 0 0 6 0;
#X connect 0 1 10 0;
#X connect 0 2 9 0;
#X connect 0 3 8 0;
#X connect 1 0 0 0;
#X connect 2 0 0 1;
#X connect 3 0 4 0;
#X connect 4 0 5 0;
#X connect 5 0 1 0;
#X connect 7 0 0 0;
#X connect 11 0 0 0;
#X connect 12 0 0 0;
#X connect 13 0 0 0;
#X connect 14 0 0 0;
