#N canvas 3 89 670 403 10;
#X declare -path ekext;
#X obj 60 115 wfold~;
#N canvas 683 378 450 300 miniscope~ 0;
#X obj 19 163 inlet~;
#N canvas 0 22 450 300 (subpatch) 0;
#X array trisaw 1024 float 0;
#X coords 0 1 1023 -1 202 61 1;
#X restore 202 128 graph;
#X obj 39 210 bang~;
#X obj 19 247 tabwrite~ trisaw;
#X obj 202 79 switch~ 1024 1 1;
#X obj 202 59 inlet;
#X connect 0 0 3 0;
#X connect 2 0 3 0;
#X connect 5 0 4 0;
#X coords 0 -1 1 1 206 81 2 200 110;
#X restore 91 180 pd miniscope~;
#X obj 47 87 phasor~ 43;
#X floatatom 151 58 5 1 99 0 - - -;
#X obj 151 78 * 0.01;
#X floatatom 205 99 5 0.0001 0.9999 2 symmetry - -;
#X obj 323 243 tgl 15 0 empty empty empty 17 7 0 10 -262144 -1 -1 1
1;
#N canvas 683 378 450 300 miniscope~ 0;
#X obj 19 163 inlet~;
#N canvas 0 22 450 300 (subpatch) 0;
#X array trisawFull 1024 float 0;
#X coords 0 1 1023 -1 202 61 1 0 0;
#X restore 202 128 graph;
#X obj 39 210 bang~;
#X obj 202 79 switch~ 1024 1 1;
#X obj 202 59 inlet;
#X obj 19 247 tabwrite~ trisawFull;
#X connect 0 0 5 0;
#X connect 2 0 5 0;
#X connect 4 0 3 0;
#X coords 0 -1 1 1 206 81 2 200 110;
#X restore 91 285 pd miniscope~;
#X obj 40 179 -~ 0.5;
#X obj 40 200 *~ 2;
#X msg 323 223 1;
#X obj 323 203 loadbang;
#X text 357 63 wfold~ is a simplified version of wavefolder~;
#X text 333 77 It uses the same algorithm but saves on cpu power;
#X text 327 91 since it's symmetry input is an event input rather;
#X text 321 106 than a signal input. Of course this means you can't
;
#X text 291 121 create the modulated timbres of the wavefolder~ objects
\,;
#X text 285 136 but if you just wanted a whole lot of symmetry-adjustable
;
#X text 267 151 waves \, it could be useful...................................
;
#X obj 419 241 declare -path ekext;
#X connect 0 0 1 0;
#X connect 0 0 8 0;
#X connect 2 0 0 0;
#X connect 3 0 4 0;
#X connect 4 0 5 0;
#X connect 5 0 0 1;
#X connect 6 0 1 1;
#X connect 6 0 7 1;
#X connect 8 0 9 0;
#X connect 9 0 7 0;
#X connect 10 0 6 0;
#X connect 11 0 10 0;
